<svg width="16" height="16" viewBox="0 0 16 16" fill="none" xmlns="http://www.w3.org/2000/svg">
<path d="M6.0701 3.63198C6.46877 2.46531 8.08077 2.42998 8.55343 3.52598L8.59343 3.63265L9.13143 5.20598C9.25473 5.5668 9.45397 5.89699 9.71572 6.17426C9.97747 6.45154 10.2956 6.66945 10.6488 6.81331L10.7934 6.86731L12.3668 7.40465C13.5334 7.80331 13.5688 9.41531 12.4734 9.88798L12.3668 9.92798L10.7934 10.466C10.4325 10.5892 10.1022 10.7884 9.82478 11.0502C9.54738 11.3119 9.32936 11.6301 9.18543 11.9833L9.13143 12.1273L8.5941 13.7013C8.19543 14.868 6.58343 14.9033 6.11143 13.808L6.0701 13.7013L5.53277 12.128C5.40955 11.767 5.21035 11.4367 4.94859 11.1593C4.68684 10.8819 4.36863 10.6639 4.01543 10.52L3.87143 10.466L2.2981 9.92865C1.13077 9.52998 1.09543 7.91798 2.19143 7.44598L2.2981 7.40465L3.87143 6.86731C4.23226 6.74402 4.56244 6.54478 4.83972 6.28303C5.11699 6.02128 5.33491 5.70311 5.47877 5.34998L5.53277 5.20598L6.0701 3.63198ZM12.6654 1.33331C12.7902 1.33331 12.9124 1.3683 13.0182 1.43429C13.124 1.50029 13.2092 1.59465 13.2641 1.70665L13.2961 1.78465L13.5294 2.46865L14.2141 2.70198C14.3391 2.74444 14.4487 2.82306 14.5289 2.92786C14.6092 3.03266 14.6565 3.15893 14.665 3.29066C14.6734 3.4224 14.6425 3.55367 14.5762 3.66784C14.51 3.78201 14.4113 3.87394 14.2928 3.93198L14.2141 3.96398L13.5301 4.19731L13.2968 4.88198C13.2542 5.00693 13.1756 5.11645 13.0707 5.19664C12.9659 5.27684 12.8396 5.32411 12.7079 5.33246C12.5761 5.34081 12.4449 5.30988 12.3308 5.24357C12.2166 5.17726 12.1247 5.07856 12.0668 4.95998L12.0348 4.88198L11.8014 4.19798L11.1168 3.96465C10.9918 3.92218 10.8822 3.84357 10.8019 3.73877C10.7217 3.63397 10.6743 3.5077 10.6659 3.37597C10.6575 3.24423 10.6884 3.11296 10.7546 2.99879C10.8209 2.88462 10.9195 2.79269 11.0381 2.73465L11.1168 2.70265L11.8008 2.46931L12.0341 1.78465C12.0791 1.65293 12.1641 1.53859 12.2773 1.45765C12.3905 1.37671 12.5263 1.33323 12.6654 1.33331Z" fill="black"/>
</svg>
