<svg width="16" height="15" viewBox="0 0 16 15" fill="none" xmlns="http://www.w3.org/2000/svg">
<path d="M2 8.222C2 8.17067 2 8.14467 2.00133 8.12333C2.01184 7.96182 2.08074 7.80964 2.19519 7.69519C2.30964 7.58074 2.46182 7.51184 2.62333 7.50133C2.64533 7.5 2.67 7.5 2.722 7.5H13.278C13.3293 7.5 13.3547 7.5 13.3767 7.50133C13.5382 7.51184 13.6904 7.58074 13.8048 7.69519C13.9193 7.80964 13.9882 7.96182 13.9987 8.12333C14 8.14467 14 8.17 14 8.222C14 8.48533 14 8.61733 13.9907 8.76533C13.8513 10.9567 11.9887 12.8913 9.804 13.112C9.65667 13.1273 9.57067 13.1307 9.39867 13.1373C8.93266 13.1557 8.46636 13.1655 8 13.1667C7.56667 13.1667 7.09067 13.1553 6.60133 13.1373C6.42933 13.1307 6.34333 13.1273 6.19667 13.1127C4.01133 12.8913 2.14867 10.9567 2.01 8.76533C2 8.61733 2 8.48533 2 8.222Z" stroke="black" stroke-width="1.07143"/>
<path d="M3.9987 12.8333L3.33203 14.1667M11.9987 12.8333L12.6654 14.1667M1.33203 7.5H14.6654" stroke="black" stroke-width="1.07143" stroke-linecap="round"/>
<path d="M1.5 8.16536C1.5 8.29797 1.55268 8.42515 1.64645 8.51892C1.74021 8.61269 1.86739 8.66536 2 8.66536C2.13261 8.66536 2.25979 8.61269 2.35355 8.51892C2.44732 8.42515 2.5 8.29797 2.5 8.16536H1.5ZM4.23067 5.3267L3.76533 5.51003C3.78995 5.57226 3.8268 5.62891 3.87371 5.67663C3.92063 5.72435 3.97664 5.76217 4.03843 5.78785C4.10023 5.81352 4.16655 5.82653 4.23347 5.82611C4.30039 5.82568 4.36654 5.81183 4.428 5.78536L4.23067 5.3267ZM8.204 3.61536L8.402 4.07536C8.52132 4.02397 8.61596 3.92814 8.66586 3.80819C8.71576 3.68823 8.717 3.55356 8.66933 3.4327L8.204 3.61536ZM2.5 8.16536V2.42203H1.5V8.16536H2.5ZM3.59 1.33203C4.036 1.33203 4.43667 1.60336 4.602 2.01736L5.53067 1.64536C5.3756 1.25758 5.10791 0.92581 4.76212 0.691601C4.41633 0.457392 4.00831 0.332151 3.59067 0.332031L3.59 1.33203ZM2.5 2.42203C2.5 1.82003 2.988 1.33203 3.59 1.33203L3.59067 0.332031C3.03636 0.332031 2.5041 0.552227 2.11215 0.944178C1.7202 1.33613 1.5 1.86773 1.5 2.42203H2.5ZM4.602 2.01736L4.85533 2.64936L5.78333 2.27803L5.53067 1.64536L4.602 2.01736ZM4.69533 5.14336C4.5277 4.71594 4.53104 4.24039 4.70467 3.81536L3.778 3.4387C3.50758 4.10178 3.50347 4.84352 3.76533 5.51003L4.69533 5.14336ZM8.00667 3.1567L4.03267 4.86736L4.428 5.78536L8.40133 4.0747L8.00667 3.1567ZM6.85467 2.87736C7.26933 3.0547 7.578 3.39003 7.73933 3.7987L8.66933 3.4327C8.54227 3.1048 8.35113 2.80484 8.10709 2.55164C7.86305 2.29844 7.571 2.09642 7.248 1.95736L6.85467 2.87736ZM4.70467 3.81536C4.86131 3.42181 5.15819 3.1009 5.538 2.91336L5.10067 2.0147C4.49907 2.30976 4.02794 2.817 3.778 3.4387L4.70467 3.81536ZM5.538 2.91336C5.74188 2.81268 5.96516 2.75738 6.19246 2.75128C6.41976 2.74518 6.64568 2.78776 6.85467 2.87736L7.248 1.95736C6.90712 1.81156 6.53876 1.74181 6.16814 1.75159C5.79752 1.76137 5.43338 1.85112 5.10067 2.0147L5.538 2.91336Z" fill="black"/>
</svg>
