<svg width="16" height="17" viewBox="0 0 16 17" fill="none" xmlns="http://www.w3.org/2000/svg">
<g opacity="0.6">
<path d="M13.98 4.63317L8.48 1.62379C8.33305 1.54259 8.16789 1.5 8 1.5C7.83211 1.5 7.66695 1.54259 7.52 1.62379L2.02 4.63442C1.86293 4.72036 1.73181 4.84689 1.64034 5.00081C1.54888 5.15472 1.50041 5.33037 1.5 5.50942V11.4869C1.50041 11.666 1.54888 11.8416 1.64034 11.9955C1.73181 12.1494 1.86293 12.276 2.02 12.3619L7.52 15.3725C7.66695 15.4537 7.83211 15.4963 8 15.4963C8.16789 15.4963 8.33305 15.4537 8.48 15.3725L13.98 12.3619C14.1371 12.276 14.2682 12.1494 14.3597 11.9955C14.4511 11.8416 14.4996 11.666 14.5 11.4869V5.51004C14.4999 5.33068 14.4516 5.15464 14.3601 5.00036C14.2686 4.84609 14.1373 4.71926 13.98 4.63317ZM8 2.49879L13.0212 5.24879L8 7.99879L2.97875 5.24879L8 2.49879ZM2.5 6.12379L7.5 8.86004V14.2219L2.5 11.4875V6.12379ZM8.5 14.2219V8.86254L13.5 6.12379V11.485L8.5 14.2219Z" fill="black"/>
</g>
</svg>
