<svg width="10" height="6" viewBox="0 0 10 6" fill="none" xmlns="http://www.w3.org/2000/svg">
	<path d="M0.144832 1.1035L4.64483 5.6035C4.7386 5.69723 4.86575 5.74989 4.99833 5.74989C5.13091 5.74989 5.25807 5.69723 5.35183 5.6035L9.85183 1.1035C9.94291 1.0092 9.99331 0.882898 9.99217 0.7518C9.99103 0.620701 9.93845 0.495295 9.84574 0.402591C9.75304 0.309887 9.62763 0.257302 9.49653 0.256163C9.36543 0.255023 9.23913 0.30542 9.14483 0.3965L4.99883 4.5435L0.852832 0.396499C0.759068 0.302763 0.631914 0.250106 0.499332 0.250106C0.36675 0.250106 0.239596 0.302763 0.145832 0.396499C0.0520959 0.490263 -0.000561265 0.617417 -0.000561277 0.749999C-0.000561289 0.882581 0.0510964 1.00973 0.144832 1.1035Z" fill="black" />
</svg>
