<svg width="24" height="24" viewBox="0 0 24 24" fill="none" xmlns="http://www.w3.org/2000/svg">
<g clip-path="url(#clip0_302_391)">
<path d="M22.5799 5.546L18.6665 1.61266C18.4079 1.35537 18.058 1.21094 17.6932 1.21094C17.3284 1.21094 16.9785 1.35537 16.7199 1.61266L2.84652 15.466L1.57985 20.9327C1.53616 21.1325 1.53766 21.3396 1.58424 21.5388C1.63082 21.7379 1.72131 21.9242 1.8491 22.0839C1.97688 22.2437 2.13874 22.3728 2.32284 22.462C2.50694 22.5512 2.70863 22.5981 2.91319 22.5993C3.00847 22.6096 3.10458 22.6096 3.19986 22.5993L8.72652 21.3327L22.5799 7.49266C22.8371 7.23407 22.9816 6.88412 22.9816 6.51933C22.9816 6.15454 22.8371 5.80459 22.5799 5.546ZM8.05986 20.1327L2.87985 21.2193L4.05985 16.1393L14.4399 5.79933L18.4399 9.79933L8.05986 20.1327ZM19.3332 8.83266L15.3332 4.83266L17.6532 2.526L21.5865 6.526L19.3332 8.83266Z" fill="black"/>
</g>
<defs>
<clipPath id="clip0_302_391">
<rect width="24" height="24" fill="white"/>
</clipPath>
</defs>
</svg>
