<svg width="24" height="24" viewBox="0 0 24 24" fill="none" xmlns="http://www.w3.org/2000/svg">
<path d="M16.5 11C18.43 11 20 9.43 20 7.5C20 5.57 18.43 4 16.5 4C14.57 4 13 5.57 13 7.5V9H11V7.5C11 5.57 9.43 4 7.5 4C5.57 4 4 5.57 4 7.5C4 9.43 5.57 11 7.5 11H9V13H7.5C5.57 13 4 14.57 4 16.5C4 18.43 5.57 20 7.5 20C9.43 20 11 18.43 11 16.5V15H13V16.5C13 18.43 14.57 20 16.5 20C18.43 20 20 18.43 20 16.5C20 14.57 18.43 13 16.5 13H15V11H16.5ZM15 7.5C15.0142 7.11165 15.1784 6.74394 15.4582 6.47422C15.7379 6.2045 16.1114 6.05378 16.5 6.05378C16.8886 6.05378 17.2621 6.2045 17.5418 6.47422C17.8216 6.74394 17.9858 7.11165 18 7.5C18 8.326 17.327 9 16.5 9H15V7.5ZM9 16.5C9 17.326 8.327 18 7.5 18C6.673 18 6 17.326 6 16.5C6 15.672 6.673 15 7.5 15H9V16.5ZM9 9H7.5C7.20305 9.0002 6.9127 8.91231 6.66571 8.74745C6.41872 8.5826 6.22618 8.34818 6.11245 8.07387C5.99872 7.79956 5.96891 7.49767 6.02679 7.20641C6.08468 6.91516 6.22765 6.64761 6.43763 6.43763C6.64761 6.22765 6.91516 6.08468 7.20641 6.02679C7.49767 5.96891 7.79956 5.99872 8.07387 6.11245C8.34818 6.22618 8.5826 6.41872 8.74745 6.66571C8.91231 6.9127 9.0002 7.20305 9 7.5V9ZM13 13H11V11H13V13ZM16.5 15C16.8883 15.0142 17.2561 15.1784 17.5258 15.4582C17.7955 15.7379 17.9462 16.1114 17.9462 16.5C17.9462 16.8886 17.7955 17.2621 17.5258 17.5418C17.2561 17.8216 16.8883 17.9858 16.5 18C15.673 18 15 17.326 15 16.5V15H16.5Z" fill="black"/>
</svg>
