<svg width="22" height="22" viewBox="0 0 22 22" fill="none" xmlns="http://www.w3.org/2000/svg">
<path fill-rule="evenodd" clip-rule="evenodd" d="M8.918 2.632C8.063 3.284 7.068 4.277 5.672 5.672C4.276 7.067 3.284 8.062 2.632 8.918C1.992 9.756 1.75 10.372 1.75 11C1.75 11.628 1.992 12.244 2.632 13.082C3.284 13.937 4.277 14.932 5.672 16.328C7.067 17.724 8.062 18.715 8.918 19.368C9.756 20.008 10.372 20.25 11 20.25C11.628 20.25 12.244 20.008 13.082 19.368C13.937 18.716 14.932 17.723 16.328 16.328C17.724 14.933 18.715 13.938 19.368 13.082C20.008 12.244 20.25 11.628 20.25 11C20.25 10.372 20.008 9.756 19.368 8.918C18.716 8.063 17.723 7.068 16.328 5.672C14.933 4.276 13.938 3.284 13.082 2.632C12.244 1.992 11.628 1.75 11 1.75C10.372 1.75 9.756 1.992 8.918 2.632ZM8.008 1.439C8.98 0.698 9.912 0.25 11 0.25C12.088 0.25 13.02 0.698 13.992 1.44C14.937 2.16 16.002 3.225 17.348 4.572L17.428 4.652C18.775 5.999 19.84 7.063 20.561 8.008C21.302 8.98 21.75 9.912 21.75 11C21.75 12.088 21.302 13.02 20.56 13.992C19.84 14.937 18.775 16.002 17.428 17.348L17.348 17.428C16.001 18.775 14.937 19.84 13.992 20.561C13.02 21.302 12.088 21.75 11 21.75C9.912 21.75 8.98 21.302 8.008 20.56C7.063 19.84 5.998 18.775 4.652 17.428L4.572 17.348C3.225 16.001 2.16 14.937 1.439 13.992C0.698 13.02 0.25 12.088 0.25 11C0.25 9.912 0.698 8.98 1.44 8.008C2.16 7.063 3.225 5.998 4.572 4.652L4.652 4.572C5.999 3.225 7.063 2.16 8.008 1.439Z" fill="black"/>
<path fill-rule="evenodd" clip-rule="evenodd" d="M11.786 7.48701C11.9221 7.34195 12.1102 7.25688 12.309 7.25051C12.5077 7.24413 12.7009 7.31697 12.846 7.45301L15.513 9.95301C15.5878 10.0232 15.6474 10.1079 15.6881 10.202C15.7289 10.296 15.7499 10.3975 15.7499 10.5C15.7499 10.6025 15.7289 10.704 15.6881 10.7981C15.6474 10.8921 15.5878 10.9769 15.513 11.047L12.846 13.547C12.7003 13.6796 12.5083 13.7496 12.3115 13.7419C12.1146 13.7341 11.9288 13.6492 11.794 13.5055C11.6592 13.3618 11.5864 13.1709 11.5913 12.9739C11.5962 12.777 11.6783 12.5899 11.82 12.453L13.103 11.25H9.667C9.333 11.25 8.823 11.35 8.42 11.622C8.057 11.867 7.75 12.265 7.75 13C7.75 13.1989 7.67098 13.3897 7.53033 13.5303C7.38968 13.671 7.19891 13.75 7 13.75C6.80109 13.75 6.61032 13.671 6.46967 13.5303C6.32902 13.3897 6.25 13.1989 6.25 13C6.25 11.735 6.832 10.883 7.58 10.378C8.289 9.90001 9.112 9.75001 9.667 9.75001H13.103L11.82 8.54701C11.6749 8.41094 11.5899 8.22283 11.5835 8.02405C11.5771 7.82527 11.65 7.63209 11.786 7.48701Z" fill="black"/>
</svg>
