<svg width="24" height="24" viewBox="0 0 24 24" fill="none" xmlns="http://www.w3.org/2000/svg">
<path d="M13.47 7.53001C13.6106 7.67046 13.8012 7.74935 14 7.74935C14.1987 7.74935 14.3893 7.67046 14.53 7.53001L15.25 6.81001V17C15.25 17.1989 15.329 17.3897 15.4696 17.5303C15.6103 17.671 15.8011 17.75 16 17.75C16.1989 17.75 16.3896 17.671 16.5303 17.5303C16.671 17.3897 16.75 17.1989 16.75 17V6.81001L17.47 7.53001C17.5386 7.6037 17.6214 7.6628 17.7134 7.70379C17.8054 7.74478 17.9047 7.76683 18.0054 7.7686C18.1062 7.77038 18.2062 7.75186 18.2996 7.71413C18.393 7.67641 18.4778 7.62027 18.549 7.54905C18.6202 7.47783 18.6764 7.393 18.7141 7.29961C18.7518 7.20622 18.7703 7.10619 18.7686 7.00549C18.7668 6.90479 18.7447 6.80547 18.7038 6.71347C18.6628 6.62147 18.6037 6.53867 18.53 6.47001L16.53 4.47001C16.3893 4.32956 16.1987 4.25067 16 4.25067C15.8012 4.25067 15.6106 4.32956 15.47 4.47001L13.47 6.47001C13.3295 6.61064 13.2506 6.80126 13.2506 7.00001C13.2506 7.19876 13.3295 7.38939 13.47 7.53001ZM8.74997 17.19L9.46997 16.47C9.53863 16.3963 9.62143 16.3372 9.71343 16.2962C9.80543 16.2552 9.90475 16.2332 10.0054 16.2314C10.1062 16.2296 10.2062 16.2482 10.2996 16.2859C10.393 16.3236 10.4778 16.3798 10.549 16.451C10.6202 16.5222 10.6764 16.607 10.7141 16.7004C10.7518 16.7938 10.7703 16.8938 10.7686 16.9945C10.7668 17.0952 10.7447 17.1946 10.7038 17.2866C10.6628 17.3785 10.6037 17.4614 10.53 17.53L8.52997 19.53C8.38934 19.6705 8.19872 19.7494 7.99997 19.7494C7.80122 19.7494 7.6106 19.6705 7.46997 19.53L5.46997 17.53C5.39628 17.4614 5.33718 17.3785 5.29619 17.2866C5.2552 17.1946 5.23316 17.0952 5.23138 16.9945C5.2296 16.8938 5.24813 16.7938 5.28585 16.7004C5.32357 16.607 5.37971 16.5222 5.45093 16.451C5.52215 16.3798 5.60698 16.3236 5.70037 16.2859C5.79376 16.2482 5.89379 16.2296 5.99449 16.2314C6.0952 16.2332 6.19451 16.2552 6.28651 16.2962C6.37851 16.3372 6.46131 16.3963 6.52997 16.47L7.24997 17.19V7.00001C7.24997 6.8011 7.32899 6.61033 7.46964 6.46968C7.61029 6.32903 7.80106 6.25001 7.99997 6.25001C8.19888 6.25001 8.38965 6.32903 8.5303 6.46968C8.67095 6.61033 8.74997 6.8011 8.74997 7.00001V17.19Z" fill="black"/>
</svg>
